<?xml version="1.0" standalone="no"?>
<!DOCTYPE svg PUBLIC "-//W3C//DTD SVG 20010904//EN"
 "http://www.w3.org/TR/2001/REC-SVG-20010904/DTD/svg10.dtd">
<svg version="1.0" xmlns="http://www.w3.org/2000/svg"
 width="152.000000pt" height="152.000000pt" viewBox="0 0 152.000000 152.000000"
 preserveAspectRatio="xMidYMid meet">
<metadata>
Created by potrace 1.11, written by Peter Selinger 2001-2013
</metadata>
<g transform="translate(0.000000,152.000000) scale(0.100000,-0.100000)"
fill="#000000" stroke="none">
<path d="M398 1272 l-46 -3 1 -103 2 -102 -33 22 c-51 35 -120 16 -159 -42
-25 -38 -24 -241 1 -279 34 -52 133 -70 166 -30 16 19 31 19 24 0 -5 -12 4
-15 50 -15 46 0 56 3 57 18 5 115 0 525 -7 530 -5 4 -30 6 -56 4z m-65 -224
c17 -23 20 -42 20 -140 0 -92 -3 -119 -18 -141 -24 -37 -62 -37 -72 1 -13 50
-7 280 7 297 18 21 39 16 63 -17z"/>
<path d="M1027 1090 c-56 -27 -73 -65 -75 -171 -2 -73 1 -102 15 -129 25 -47
72 -72 137 -72 58 0 95 18 116 56 21 41 5 52 -19 13 -24 -39 -55 -53 -96 -43
-32 8 -45 41 -45 112 l0 54 94 0 93 0 -2 54 c-4 71 -29 112 -80 131 -47 18
-93 16 -138 -5z m119 -27 c7 -10 14 -44 14 -75 l0 -57 -47 2 c-47 2 -48 3 -51
37 -2 19 1 52 8 73 9 30 15 37 37 37 14 0 32 -8 39 -17z"/>
<path d="M718 836 c-29 -21 -38 -58 -23 -94 24 -55 106 -55 133 1 32 66 -52
138 -110 93z"/>
<path d="M250 628 c-14 -5 -31 -16 -37 -25 -12 -15 -13 -15 -13 5 0 20 -5 22
-55 22 l-55 0 0 -190 0 -190 55 0 55 0 0 154 c0 140 2 156 21 180 25 31 43 33
62 6 11 -15 14 -58 14 -178 l0 -157 54 0 54 0 1 148 c1 155 9 191 47 203 42
13 51 -15 52 -171 1 -133 3 -147 22 -166 41 -41 143 -20 143 29 0 13 -3 12
-19 -2 -29 -27 -35 -6 -37 135 -1 103 -5 131 -20 154 -40 61 -130 68 -175 14
-21 -26 -27 -29 -32 -16 -15 38 -89 63 -137 45z"/>
<path d="M926 622 c-9 -16 0 -298 12 -318 18 -34 62 -57 110 -58 37 0 49 5 68
27 15 17 24 22 24 14 0 -53 134 -53 154 -1 9 24 0 29 -19 10 -9 -9 -21 -14
-26 -11 -5 4 -9 82 -9 176 l0 169 -55 0 -55 0 0 -154 c0 -140 -2 -156 -21
-180 -11 -14 -27 -26 -34 -26 -26 0 -45 43 -44 100 1 30 1 101 0 158 l-1 102
-49 0 c-28 0 -52 -3 -55 -8z"/>
</g>
</svg>
